HIERARCHY
ROOT Hips
{
	OFFSET	0.00	0.00	0.00
	CHANNELS 6 Xposition Yposition Zposition Zrotation Xrotation Yrotation
	JOINT LeftUpLeg
	{
		OFFSET	 0.126116	-0.014019	-0.065224
		CHANNELS 3 Zrotation Xrotation Yrotation
		JOINT LeftLeg
		{
			OFFSET	 0.000000	 0.000000	 0.569914
			CHANNELS 3 Zrotation Xrotation Yrotation
			JOINT LeftFoot
			{
				OFFSET	 0.000000	 0.000000	 0.544423
				CHANNELS 3 Zrotation Xrotation Yrotation
				JOINT LeftToeBase
				{
					OFFSET	 0.000000	 0.000000	 0.207117
					CHANNELS 3 Zrotation Xrotation Yrotation
					End Site
					{
						OFFSET	 0.000000	 0.000000	 0.207117
					}
				}
			}
		}
	}
	JOINT RightUpLeg
	{
		OFFSET	-0.124023	-0.008373	-0.065224
		CHANNELS 3 Zrotation Xrotation Yrotation
		JOINT RightLeg
		{
			OFFSET	 0.000000	 0.000000	 0.570047
			CHANNELS 3 Zrotation Xrotation Yrotation
			JOINT RightFoot
			{
				OFFSET	 0.000000	 0.000000	 0.544354
				CHANNELS 3 Zrotation Xrotation Yrotation
				JOINT RightToeBase
				{
					OFFSET	 0.000000	 0.000000	 0.207540
					CHANNELS 3 Zrotation Xrotation Yrotation
					End Site
					{
						OFFSET	 0.000000	 0.000000	 0.207540
					}
				}
			}
		}
	}
	JOINT Spine
	{
		OFFSET	 0.000184	-0.007763	 0.117403
		CHANNELS 3 Zrotation Xrotation Yrotation
		JOINT Spine1
		{
			OFFSET	 0.000000	 0.000000	 0.137269
			CHANNELS 3 Zrotation Xrotation Yrotation
			JOINT Spine2
			{
				OFFSET	 0.000000	 0.000000	 0.156879
				CHANNELS 3 Zrotation Xrotation Yrotation
				JOINT LeftShoulder
				{
					OFFSET	 0.080501	-0.002496	 0.160144
					CHANNELS 3 Zrotation Xrotation Yrotation
					JOINT LeftArm
					{
						OFFSET	 0.000000	 0.000000	 0.164363
						CHANNELS 3 Zrotation Xrotation Yrotation
						JOINT LeftForeArm
						{
							OFFSET	 0.000000	 0.000000	 0.364576
							CHANNELS 3 Zrotation Xrotation Yrotation
							JOINT LeftHand
							{
								OFFSET	 0.000000	 0.000000	 0.360812
								CHANNELS 3 Zrotation Xrotation Yrotation
								JOINT LeftHandIndex1
								{
									OFFSET	 0.000000	 0.000000	 0.086006
									CHANNELS 3 Zrotation Xrotation Yrotation
									JOINT LeftHandIndex2
									{
										OFFSET	 0.000000	 0.000000	 0.047237
										CHANNELS 3 Zrotation Xrotation Yrotation
										JOINT LeftHandIndex3
										{
											OFFSET	-0.004284	-0.000551	 0.038165
											CHANNELS 3 Zrotation Xrotation Yrotation
											End Site
											{
												OFFSET	-0.004284	-0.000551	 0.038165
											}
										}
									}
								}
							}
						}
					}
				}
				JOINT Neck
				{
					OFFSET	 0.000000	 0.000000	 0.176489
					CHANNELS 3 Zrotation Xrotation Yrotation
					JOINT Head
					{
						OFFSET	 0.000000	-0.001747	 0.077940
						CHANNELS 3 Zrotation Xrotation Yrotation
						End Site
						{
							OFFSET	 0.000000	-0.001747	 0.077940
						}
					}
				}
				JOINT RightShoulder
				{
					OFFSET	-0.080363	 0.000306	 0.159706
					CHANNELS 3 Zrotation Xrotation Yrotation
					JOINT RightArm
					{
						OFFSET	 0.000000	 0.000000	 0.164196
						CHANNELS 3 Zrotation Xrotation Yrotation
						JOINT RightForeArm
						{
							OFFSET	 0.000000	 0.000000	 0.365611
							CHANNELS 3 Zrotation Xrotation Yrotation
							JOINT RightHand
							{
								OFFSET	 0.000000	 0.000000	 0.360648
								CHANNELS 3 Zrotation Xrotation Yrotation
								JOINT RightHandIndex1
								{
									OFFSET	 0.000000	 0.000000	 0.069977
									CHANNELS 3 Zrotation Xrotation Yrotation
									JOINT RightHandIndex2
									{
										OFFSET	 0.000000	 0.000000	 0.052305
										CHANNELS 3 Zrotation Xrotation Yrotation
										JOINT RightHandIndex3
										{
											OFFSET	 0.009002	-0.000782	 0.042196
											CHANNELS 3 Zrotation Xrotation Yrotation
											End Site
											{
												OFFSET	 0.009002	-0.000782	 0.042196
											}
										}
									}
								}
							}
						}
					}
				}
			}
		}
	}
}
MOTION
Frames:    4
Frame Time: 0.03333334
-0.719261	-1.661179	 1.275251	-178.031600	 4.482574	-0.087796	-34.042380	-6.067924	-178.129200	 0.286753	-7.687492	 0.299641	-15.135560	 56.993670	 1.982342	-2.385833	 28.452760	 0.000004	 24.332020	-9.278404	 176.795600	-7.008180	-15.887670	 1.066989	 5.606861	 74.169740	 5.853699	 2.384659	 28.388700	-0.000001	-6.609821	 5.010177	 1.774368	-3.916750	-3.621374	-13.401360	 11.290380	-10.588740	 16.146980	-91.776210	 78.527380	-180.000000	-25.571320	-8.080489	-6.927831	-5.300403	-2.937016	-16.607260	 9.554178	-1.772276	-4.909791	-4.131196	 21.524690	 0.986298	-5.167839	 0.733520	 3.519257	-1.378229	 35.397820	-2.634230	 1.378631	 4.362671	-0.142678	-13.736810	-4.358558	-3.282869	 89.782070	 78.203890	 180.000000	-2.489174	-1.488454	-7.070579	-1.952636	-8.206346	 28.413320	-14.117280	 30.540770	 63.086250	 5.715225	 19.176060	-3.692089	 5.027514	 0.245388	-9.378011	-2.350882	 35.473990	 5.254307
-0.719264	-1.659918	 1.275597	-177.382700	 5.498944	-0.556987	-33.277610	-6.008691	-178.286600	-0.739916	-5.553541	 0.117321	-13.940760	 52.710250	 2.359898	-2.385833	 28.452760	 0.000004	 24.152040	-10.886530	 177.634500	-4.604516	-17.558810	 1.906347	-6.880505	 77.097150	 16.804930	 2.384659	 28.388700	-0.000001	-7.601333	 6.149436	 2.610704	-4.221103	-7.650315	-15.563760	 11.227560	-8.844637	 17.513420	-91.776100	 78.527420	 179.999900	-32.357220	-4.773220	-3.518054	-5.853767	-4.502823	-25.874340	 9.235986	-2.317996	-4.607261	-4.131196	 21.524690	 0.986298	-5.167839	 0.733520	 3.519257	-1.378229	 35.397820	-2.634230	 1.667971	 6.572929	-0.031254	-13.633830	-7.820819	-4.318611	 89.782100	 78.203900	 180.000000	-3.344532	 0.040715	-9.079659	-3.613853	-10.815040	 32.450000	-17.789420	 35.141960	 73.798780	 5.715225	 19.176060	-3.692089	 5.027514	 0.245388	-9.378011	-2.350882	 35.473990	 5.254307
-0.719038	-1.659581	 1.275548	-177.300900	 5.572140	-0.703298	-33.154020	-5.790520	-178.195100	-0.756562	-4.925017	 0.102661	-13.814730	 52.013850	 2.300344	-2.385833	 28.452760	 0.000004	 24.470530	-11.111670	 177.810300	-4.617696	-17.968930	 1.945247	-8.286031	 77.911330	 18.285760	 2.384659	 28.388700	-0.000001	-7.754756	 6.215451	 2.737154	-4.304987	-7.901120	-15.575690	 11.204300	-8.734177	 17.462110	-91.776180	 78.527420	-180.000000	-32.860650	-4.197912	-2.403901	-6.117807	-4.817479	-28.121760	 9.076885	-2.407569	-4.566239	-4.131196	 21.524690	 0.986298	-5.167839	 0.733520	 3.519257	-1.378229	 35.397820	-2.634230	 1.659072	 6.737662	 0.041802	-13.600120	-8.009186	-4.362578	 89.782160	 78.203890	 179.999900	-3.443015	 0.334333	-9.513398	-3.523164	-11.201690	 33.510410	-17.935950	 35.882230	 74.426670	 5.715225	 19.176060	-3.692089	 5.027514	 0.245388	-9.378011	-2.350882	 35.473990	 5.254307
-0.717453	-1.657175	 1.275180	-176.849800	 6.017750	-1.503943	-32.445510	-5.408599	-177.747600	-0.842545	-3.305752	 0.063989	-13.446220	 49.187900	 2.375418	-2.385833	 28.452760	 0.000004	 26.204660	-12.441920	 178.863100	-4.682121	-20.328460	 2.167690	-21.255030	 82.119170	 31.645160	 2.384659	 28.388700	-0.000001	-8.699800	 6.488745	 3.427607	-4.892759	-9.045548	-15.838480	 11.131580	-8.214400	 17.326080	-91.776160	 78.527420	-180.000000	-35.571410	-0.751351	 4.250925	-7.789569	-6.365762	-41.039840	 8.207805	-2.935209	-4.332590	-4.131196	 21.524690	 0.986298	-5.167839	 0.733520	 3.519257	-1.378229	 35.397820	-2.634230	 1.606240	 7.644649	 0.444927	-13.417860	-9.047874	-4.599165	 89.782090	 78.203890	 180.000000	-4.054343	 2.423576	-12.187610	-2.623339	-13.614940	 40.418910	-18.287230	 39.923780	 77.187260	 5.715225	 19.176060	-3.692089	 5.027514	 0.245388	-9.378011	-2.350882	 35.473990	 5.254307
